<?xml version="1.0" encoding="utf-8"?>
<!DOCTYPE svg PUBLIC "-//W3C//DTD SVG 1.0//EN" "http://www.w3.org/TR/2001/REC-SVG-20010904/DTD/svg10.dtd">
<svg version="1.0" xmlns="http://www.w3.org/2000/svg" width="200px" height="200px" viewBox="0 0 200 200" preserveAspectRatio="xMidYMid meet">
 <g fill="#00ff6c">
  <path d="M51.1 186.2 c-3 -1.5 -6.6 -7.2 -26.8 -42 -19.2 -33.4 -23.3 -41 -23.3 -44.2 0 -3.1 3.5 -9.9 19.7 -37.9 10.9 -18.8 20.1 -34.1 20.6 -34.1 0.5 0 7.9 3.9 16.3 8.7 14 8 15.4 9.1 15.4 11.6 l0 2.7 -10.5 0 c-5.8 0 -10.5 0.3 -10.5 0.8 0.1 1.4 28.6 50.4 29.5 50.6 0.5 0 3.9 -5.2 7.7 -11.7 l6.9 -11.8 -7.1 -12 c-3.8 -6.6 -7 -12.2 -7 -12.5 0 -0.2 1.3 -0.4 2.9 -0.4 1.7 0 6.9 2.3 12.5 5.5 5.2 3 10 5.5 10.7 5.5 0.6 0 0.9 0.6 0.6 1.3 -0.3 0.7 -12.2 21.6 -26.6 46.5 -14.3 24.9 -26.1 45.7 -26.1 46.3 0 0.7 4.3 1 13 0.7 12.3 -0.3 13.1 -0.4 15.4 -2.8 1.4 -1.4 12.2 -19.4 24.1 -40 11.9 -20.6 21.9 -37.7 22.1 -37.9 0.2 -0.2 13.8 7.3 30.3 16.7 16.5 9.5 30.4 17.2 31 17.2 0.6 0 1.1 0.3 1.1 0.8 0 0.4 -9.2 16.5 -20.4 35.7 -17.3 30 -20.7 35.3 -23.7 36.7 -3.1 1.6 -7.6 1.8 -48.9 1.8 -41.3 0 -45.8 -0.2 -48.9 -1.8z m86.9 -32.9 c0 -1.2 -21.3 -38.3 -22 -38.3 -0.3 0 -3.7 5.3 -7.4 11.8 l-6.8 11.7 3.3 6.4 c1.9 3.5 4.3 7 5.4 7.7 1.4 1 5.4 1.4 14.7 1.4 7.1 0 12.8 -0.3 12.8 -0.7z"/>
 </g>
 <g fill="#00ff8d">
  <path d="M189.5 116.2 c-1.5 -0.3 -57.6 -31.8 -60.4 -33.8 -0.2 -0.2 5 -9.7 11.6 -21.1 l12 -20.8 -13 -0.3 c-10 -0.2 -13.5 0.1 -15.2 1.2 -1.2 0.8 -5.5 7.3 -9.5 14.4 -8.6 15.1 -7 14.6 -21.3 6.3 -4.9 -2.8 -9.1 -5.1 -9.4 -5.1 -0.3 0 -1.8 -1.3 -3.3 -3 -2.2 -2.4 -3.6 -3 -6.9 -3 -2.6 0 -4.1 -0.5 -4.1 -1.2 0 -0.7 -7 -5.3 -15.5 -10.1 -17.5 -10 -16.4 -7.9 -9.7 -19.1 2.4 -4 4.5 -6.2 6.8 -7.2 2.7 -1.1 12.2 -1.4 48.6 -1.4 41.2 0 45.6 0.2 48.7 1.8 3 1.5 6.7 7.2 26.8 42 26.5 45.9 25.8 43.8 19.6 54.4 -3 5 -4.2 6.3 -5.8 6z"/>
 </g>
</svg>