<?xml version="1.0" encoding="utf-8"?>
<!DOCTYPE svg PUBLIC "-//W3C//DTD SVG 1.0//EN" "http://www.w3.org/TR/2001/REC-SVG-20010904/DTD/svg10.dtd">
<svg version="1.0" xmlns="http://www.w3.org/2000/svg" width="2204px" height="2620px" viewBox="0 0 2204 2620" preserveAspectRatio="xMidYMid meet">
 <g fill="#00ff8c">
  <path d="M1665 919.1 c0 -1.4 -0.6 -2.1 -2 -2.1 -1.3 0 -2 -0.7 -2 -1.9 0 -1.4 -1 -2.1 -3.8 -2.6 -2.1 -0.3 -4.5 -1.5 -5.2 -2.6 -0.8 -1 -2.5 -1.9 -3.7 -1.9 -1.3 0 -2.3 -0.4 -2.3 -1 0 -0.5 -1.8 -1 -4 -1 -3.3 0 -4 -0.3 -4 -1.9 0 -1.5 -1 -2.1 -4 -2.6 -3.6 -0.6 -4 -1 -4 -3.5 0 -4.1 -1 -6 -3 -6 -1 0 -2 -0.6 -2.3 -1.2 -0.2 -0.9 -2.5 -1.2 -7.5 -1.1 -6.9 0.3 -7.2 0.2 -7.2 -2 0 -2 -0.4 -2.2 -3.9 -1.9 -3.9 0.4 -3.9 0.4 -4.6 -3.7 -0.5 -3.1 -1.1 -4.1 -2.6 -4.1 -1 0 -1.9 -0.4 -1.9 -1 0 -0.5 -0.9 -1 -2 -1 -1.1 0 -2 -0.4 -2 -1 0 -0.5 -1.8 -1.3 -4 -1.6 -3 -0.5 -4 -1.1 -4 -2.5 0 -1.2 -0.7 -1.9 -2 -1.9 -1.3 0 -2 -0.7 -2 -1.9 0 -1.4 -1 -2 -3.8 -2.4 -2.1 -0.4 -4.4 -1.5 -5.2 -2.7 -0.8 -1.1 -2.5 -2 -3.7 -2 -1.3 0 -2.3 -0.4 -2.3 -1 0 -0.5 -1.8 -1 -4 -1 -3.3 0 -4 -0.3 -4 -1.9 0 -1.5 -1 -2.1 -4 -2.6 -2.9 -0.5 -4 -1.2 -4 -2.5 0 -1.3 -1.1 -1.9 -4.1 -2.4 -4.6 -0.7 -6.9 -2.5 -6.9 -5.4 0 -1.7 -0.5 -1.9 -4.5 -1.4 -4.2 0.4 -4.5 0.3 -4.5 -1.9 0 -2.2 -0.3 -2.4 -3.9 -2.1 -3.9 0.4 -3.9 0.4 -4.6 -3.7 -0.5 -3.1 -1.1 -4.1 -2.6 -4.1 -1 0 -1.9 -0.4 -1.9 -1 0 -0.5 -0.9 -1 -2 -1 -1.1 0 -2 -0.4 -2 -1 0 -0.5 -1.8 -1.3 -4 -1.6 -3 -0.5 -4 -1.1 -4 -2.5 0 -1.5 -0.7 -1.9 -3.2 -1.9 -5.7 0 -7.5 -1 -8.2 -4.1 -0.5 -2.6 -0.9 -2.9 -4.6 -2.9 -3.3 0 -4 -0.3 -4 -2 0 -1.6 -0.7 -2 -3.5 -2 -2.8 0 -3.5 -0.4 -3.5 -1.9 0 -1.5 -1 -2.1 -4 -2.6 -2.9 -0.5 -4 -1.2 -4 -2.5 0 -1.3 -1.1 -1.9 -4.1 -2.4 -4.6 -0.7 -6.9 -2.5 -6.9 -5.4 0 -1.7 -0.5 -1.9 -4.5 -1.4 -4.3 0.4 -4.5 0.3 -4.5 -2.1 0 -1.9 -0.4 -2.5 -1.5 -2.1 -0.8 0.4 -3.5 0.3 -6 0 -4.1 -0.7 -4.5 -1 -4.5 -3.6 0 -4.1 -1 -6 -3.1 -6 -1 0 -1.9 -0.4 -1.9 -1 0 -0.5 -1.8 -1.3 -4 -1.6 -2.9 -0.5 -4 -1.1 -4 -2.4 0 -1.4 -1.1 -1.9 -5.2 -2.2 -2.9 -0.3 -5.4 -1.1 -5.6 -1.7 -0.2 -0.6 -1.5 -1.1 -2.8 -1.1 -1.7 0 -2.4 -0.6 -2.4 -2 0 -1.3 -0.7 -2 -2 -2 -1.1 0 -2 -0.4 -2 -1 0 -0.5 -0.9 -1 -2 -1 -1.1 0 -2 -0.4 -2 -1 0 -0.5 -1.8 -1.3 -4 -1.6 -3 -0.5 -4 -1.1 -4 -2.5 0 -1.2 -0.7 -1.9 -2 -1.9 -1.3 0 -2 -0.7 -2 -1.9 0 -1.4 -1 -2.1 -3.7 -2.6 -2.1 -0.4 -4.8 -1.9 -6.4 -3.6 -1.9 -2 -3.7 -2.9 -5.8 -2.9 -2.6 0 -3.1 -0.4 -3.1 -2.5 0 -1.8 -0.4 -2.3 -1.5 -1.9 -0.8 0.4 -3.5 0.3 -6 0 -4.1 -0.7 -4.5 -1 -4.5 -3.6 0 -4.1 -1 -6 -3.1 -6 -1 0 -1.9 -0.4 -1.9 -1 0 -0.5 -1.8 -1.3 -4 -1.6 -3.1 -0.5 -4 -1.1 -4 -2.6 0 -1.9 -0.4 -2 -7.4 -1.3 l-7.4 0.7 -0.7 -4.1 c-0.5 -3.1 -1.1 -4.1 -2.6 -4.1 -1 0 -1.9 -0.4 -1.9 -1 0 -0.5 -0.9 -1 -2 -1 -1.1 0 -2 -0.4 -2 -1 0 -0.5 -1.8 -1.3 -4 -1.6 -3 -0.5 -4 -1.1 -4 -2.5 0 -1.2 -0.7 -1.9 -2 -1.9 -1.3 0 -2 -0.7 -2 -1.9 0 -1.4 -1 -2.1 -3.8 -2.6 -2.1 -0.3 -4.5 -1.5 -5.2 -2.6 -0.8 -1 -2.5 -1.9 -3.7 -1.9 -1.3 0 -2.3 -0.4 -2.3 -1 0 -0.5 -0.9 -1 -2 -1 -1.5 0 -2 -0.7 -2 -2.5 0 -1.8 -0.4 -2.3 -1.5 -1.9 -0.8 0.4 -3.5 0.3 -6 0 -4.1 -0.7 -4.5 -1 -4.5 -3.6 0 -4.1 -1 -6 -3 -6 -1 0 -2 -0.6 -2.3 -1.2 -0.2 -0.9 -2.5 -1.2 -7.5 -1.1 -6.9 0.3 -7.2 0.2 -7.2 -2 0 -2 -0.4 -2.2 -3.9 -1.9 -3.9 0.4 -3.9 0.4 -4.6 -3.7 -0.5 -3.1 -1.1 -4.1 -2.6 -4.1 -1 0 -1.9 -0.4 -1.9 -1 0 -0.5 -0.9 -1 -2 -1 -1.1 0 -2 -0.4 -2 -1 0 -0.5 -1.8 -1.3 -4 -1.6 -3 -0.5 -4 -1.1 -4 -2.5 0 -1.2 -0.7 -1.9 -2 -1.9 -1.3 0 -2 -0.7 -2 -1.9 0 -1.4 -1 -2.1 -3.7 -2.6 -2.9 -0.5 -7.3 -3.6 -7.3 -5.1 0 -0.7 315.8 -547 320.8 -554.9 21 -33.3 48.5 -58.5 81.6 -74.9 26.1 -12.9 48.5 -18.7 79.1 -20.6 9.7 -0.6 111.6 -1 259.8 -1 l243.9 0 -3.5 6.2 c-1.9 3.5 -7.3 12.8 -11.9 20.8 -8.2 14.2 -48.5 83.7 -362.6 626 -139.5 240.8 -155.2 267.5 -157.6 267.8 -2.1 0.3 -2.6 -0.1 -2.6 -1.7z"/>
 </g>
 <g fill="#00ff78">
  <path d="M1065.6 1957.5 c-0.8 -0.8 -1.9 -1.5 -2.5 -1.5 -0.6 0 -1.1 -0.4 -1.1 -1 0 -0.5 -1.1 -1 -2.5 -1 -1.8 0 -2.5 -0.5 -2.5 -2 0 -1.3 -0.7 -2 -2 -2 -1.3 0 -2 -0.7 -2 -1.9 0 -1.5 -1 -2 -6 -2.5 -5.1 -0.6 -6 -1 -6 -2.6 0 -1.3 -0.7 -2 -2 -2 -1.3 0 -2 -0.7 -2 -1.9 0 -1.4 -1 -2.1 -3.6 -2.6 -4.3 -0.8 -6.4 -2.5 -6.4 -5.3 0 -1.8 -0.5 -1.9 -4 -1.5 -3.2 0.5 -4.4 0.2 -5.8 -1.4 -1 -1.2 -3.7 -2.3 -6.4 -2.7 -4.4 -0.7 -4.8 -0.9 -4.8 -3.6 0 -4.1 -1 -6 -3.1 -6 -1 0 -1.9 -0.4 -1.9 -1 0 -0.5 -1.8 -1.3 -4 -1.6 -3.1 -0.5 -4 -1.1 -4 -2.6 0 -1.9 -0.4 -2 -7.4 -1.3 l-7.4 0.7 -0.7 -4.1 c-0.5 -3.1 -1.1 -4.1 -2.6 -4.1 -1 0 -1.9 -0.4 -1.9 -1 0 -0.5 -0.9 -1 -2 -1 -1.1 0 -2 -0.4 -2 -1 0 -0.5 -1.8 -1.3 -4 -1.6 -3 -0.5 -4 -1.1 -4 -2.5 0 -1.2 -0.7 -1.9 -2 -1.9 -1.3 0 -2 -0.7 -2 -1.9 0 -1.4 -1 -2.1 -3.8 -2.6 -2.1 -0.3 -4.5 -1.5 -5.2 -2.6 -0.8 -1 -2.5 -1.9 -3.7 -1.9 -1.3 0 -2.3 -0.4 -2.3 -1 0 -0.5 -0.7 -1 -1.6 -1 -0.9 0 -2.4 -0.8 -3.3 -1.9 -0.9 -1 -3.7 -2.1 -6.3 -2.5 -4.4 -0.7 -4.8 -0.9 -4.8 -3.6 0 -4.1 -1 -6 -3 -6 -1 0 -2 -0.6 -2.3 -1.2 -0.2 -0.9 -2.5 -1.2 -7.5 -1.1 -6.9 0.3 -7.2 0.2 -7.2 -2 0 -2 -0.4 -2.2 -3.9 -1.9 -3.9 0.4 -3.9 0.4 -4.6 -3.7 -0.5 -3.1 -1.1 -4.1 -2.6 -4.1 -1 0 -1.9 -0.4 -1.9 -1 0 -0.5 -0.9 -1 -2 -1 -1.1 0 -2 -0.4 -2 -1 0 -0.5 -1.8 -1.3 -4 -1.6 -3 -0.5 -4 -1.1 -4 -2.5 0 -1.2 -0.7 -1.9 -2 -1.9 -1.3 0 -2 -0.7 -2 -1.9 0 -1.4 -1 -2.1 -3.8 -2.6 -2.1 -0.3 -4.5 -1.5 -5.2 -2.6 -0.8 -1 -2.5 -1.9 -3.7 -1.9 -1.3 0 -2.3 -0.4 -2.3 -1 0 -0.5 -1.8 -1 -4 -1 -3.3 0 -4 -0.3 -4 -1.9 0 -1.5 -1 -2.1 -4 -2.6 -3.6 -0.6 -4 -1 -4 -3.5 0 -5.3 -0.7 -5.9 -6.1 -5.3 -4.4 0.5 -4.9 0.4 -4.9 -1.4 0 -1.8 -0.5 -2 -4.5 -1.5 -4.2 0.4 -4.5 0.3 -4.5 -1.9 0 -2.2 -0.3 -2.4 -3.9 -2.1 -3.9 0.4 -3.9 0.4 -4.6 -3.7 -0.5 -3.1 -1.1 -4.1 -2.6 -4.1 -1 0 -1.9 -0.4 -1.9 -1 0 -0.5 -0.9 -1 -2 -1 -1.1 0 -2 -0.4 -2 -1 0 -0.5 -1.8 -1.3 -4 -1.6 -3 -0.5 -4 -1.1 -4 -2.5 0 -1.2 -0.7 -1.9 -2 -1.9 -1.3 0 -2 -0.7 -2 -1.9 0 -1.4 -1 -2 -4 -2.5 -2.2 -0.3 -4 -1.1 -4 -1.6 0 -0.6 -1.8 -1 -4 -1 -3.3 0 -4 -0.3 -4 -2 0 -1.6 -0.7 -2 -3.5 -2 -2.8 0 -3.5 -0.4 -3.5 -1.9 0 -1.5 -1 -2.1 -4 -2.6 -2.9 -0.5 -4 -1.2 -4 -2.5 0 -1.3 -1.1 -1.9 -4.1 -2.4 -4.6 -0.7 -6.9 -2.5 -6.9 -5.4 0 -1.7 -0.5 -1.9 -4.5 -1.4 -4.2 0.4 -4.5 0.3 -4.5 -1.9 0 -2.3 -0.3 -2.4 -4 -2.1 -3.2 0.3 -4 0.1 -4 -1.2 0 -0.9 -0.4 -1.6 -1 -1.6 -0.5 0 -1 -1.1 -1 -2.5 0 -1.6 -0.6 -2.5 -1.5 -2.5 -0.8 0 -1.5 -0.4 -1.5 -1 0 -0.5 -0.9 -1 -2 -1 -1.1 0 -2 -0.4 -2 -1 0 -0.5 -1.8 -1.3 -4 -1.6 -2.9 -0.5 -4 -1.1 -4 -2.4 0 -1.4 -1.1 -1.9 -5.2 -2.2 -2.9 -0.3 -5.4 -1.1 -5.6 -1.7 -0.2 -0.6 -1.5 -1.1 -2.8 -1.1 -1.7 0 -2.4 -0.6 -2.4 -2 0 -1.3 -0.7 -2 -2 -2 -1.3 0 -2 -0.7 -2 -2 0 -1.6 -0.7 -2 -3.5 -2 -2.8 0 -3.5 -0.4 -3.5 -1.9 0 -1.5 -1 -2.1 -4 -2.6 -2.9 -0.5 -4 -1.2 -4 -2.5 0 -1.3 -1.1 -1.9 -4.1 -2.4 -4.6 -0.7 -6.9 -2.5 -6.9 -5.4 0 -1.7 -0.5 -1.9 -4.5 -1.4 -4.3 0.4 -4.5 0.3 -4.5 -2.1 0 -1.9 -0.4 -2.5 -1.5 -2.1 -0.8 0.4 -3.5 0.3 -6 0 -4.1 -0.7 -4.5 -1 -4.5 -3.6 0 -4.1 -1 -6 -3.1 -6 -1 0 -1.9 -0.4 -1.9 -1 0 -0.5 -1.8 -1.3 -4 -1.6 -3.1 -0.5 -4 -1.1 -4 -2.6 0 -1.9 -0.4 -2 -7.4 -1.3 l-7.4 0.7 -0.7 -4.1 c-0.5 -3.1 -1.1 -4.1 -2.5 -4.1 -1 0 -2.1 -0.6 -2.3 -1.2 -0.3 -0.7 -0.6 -0.3 -0.6 1 -0.1 1.7 -0.7 2.2 -2.6 2.2 -1.4 0 -2.5 -0.2 -2.5 -0.5 0 -1.8 604.5 -1046.5 605.5 -1046.5 0.8 0 1.6 0.6 1.9 1.3 0.3 0.6 0.3 0 0 -1.5 -0.5 -2.1 -0.2 -2.8 1 -2.8 0.9 0 1.6 0.7 1.6 1.5 0 0.9 0.9 1.5 2.1 1.5 1.8 0 2 0.4 1.5 2.8 -0.6 2.4 -0.5 2.5 0.7 1 1.7 -2.1 3.7 -2.4 3.7 -0.5 0 0.7 0.9 1.9 2 2.7 1.1 0.8 2 2 2 2.7 0 0.7 1.1 1.3 2.6 1.3 3 0 5.8 2.5 5.1 4.4 -0.4 1 0 1.2 1.4 0.9 1.4 -0.4 1.9 0 2 1.3 0 1.1 0.3 1.4 0.6 0.7 0.6 -1.5 3.3 -1.7 3.3 -0.3 0 0.6 0.7 1 1.5 1 0.8 0 1.5 -0.4 1.5 -1 0 -0.5 0.7 -1 1.5 -1 1.8 0 2 2.7 0.3 3.3 -0.7 0.2 0.2 0.7 2 1.1 3.2 0.8 4.3 3 2 3.9 -0.7 0.3 0.2 0.6 2 0.6 1.7 0.1 3.2 -0.3 3.2 -0.9 0 -0.5 0.7 -1 1.5 -1 0.8 0 1.5 0.7 1.5 1.5 0 0.8 -0.7 1.5 -1.5 1.5 -0.8 0 -1.5 0.4 -1.5 0.9 0 0.5 0.7 1.1 1.5 1.5 0.9 0.3 1.5 0 1.5 -0.9 0 -2.4 2.7 -1.7 3.5 0.8 0.4 1.3 0.8 1.7 1.2 1 0.8 -2.1 3.6 -1.6 3 0.6 -0.3 1.4 0 1.7 1.4 1.4 1.3 -0.4 1.9 0 2 1.3 0 1.1 0.3 1.4 0.6 0.7 0.6 -1.7 2.1 -1.6 3.9 0.1 1.8 1.9 1.8 3.6 -0.1 3.6 -0.8 0 -1.5 0.4 -1.5 0.8 0 0.5 1.4 0.7 3 0.4 1.8 -0.3 3 0 3 0.7 0 0.6 0.5 1.1 1 1.1 0.6 0 1 -0.7 1 -1.5 0 -0.8 0.7 -1.5 1.5 -1.5 1.8 0 2 2.6 0.3 3.3 -0.7 0.3 0.2 0.6 2 0.6 2.1 0.1 3.2 0.6 3.2 1.6 0 0.8 0.5 1.5 1 1.5 1.7 0 1.1 2.8 -0.7 3.3 -1.2 0.3 -0.8 0.5 0.9 0.6 1.4 0 2.9 0.7 3.2 1.4 0.3 0.6 0.3 0 0 -1.5 -0.5 -2.1 -0.2 -2.8 1 -2.8 0.9 0 1.6 0.7 1.6 1.5 0 0.9 0.9 1.5 2.1 1.5 1.8 0 2 0.4 1.5 2.8 -0.6 2.4 -0.5 2.5 0.7 1 1.7 -2.1 3.7 -2.4 3.7 -0.5 0 0.7 0.9 1.9 2 2.7 1.1 0.8 2 2 2 2.7 0 0.8 1.2 1.3 2.9 1.3 1.6 0 3.2 0.6 3.4 1.3 0.3 0.7 0.6 0.5 0.6 -0.5 0.1 -2.2 3.1 -2.4 3.1 -0.3 0 0.9 0.9 1.5 2.5 1.5 2.9 0 3.5 2.6 0.8 3.3 -1.7 0.4 -1.7 0.5 0 0.6 0.9 0 1.7 0.6 1.7 1.1 0 0.6 0.7 1 1.5 1 0.8 0 1.5 -0.4 1.5 -1 0 -0.5 0.7 -1 1.5 -1 1.8 0 2 3 0.3 3.1 -0.7 0 0.1 0.5 1.7 1.1 1.7 0.6 3.8 2.1 4.9 3.2 1.3 1.5 2 1.7 2.3 0.9 0.7 -1.8 3.3 -1.6 3.3 0.2 0 0.8 0.6 1.5 1.4 1.5 0.7 0 1.7 1 2.1 2.3 0.4 1.3 0.8 1.7 1.2 1 0.8 -2.1 3.6 -1.6 3 0.6 -0.3 1.4 0 1.7 1.4 1.4 1.3 -0.4 1.9 0 2 1.3 0 1.1 0.3 1.4 0.6 0.7 0.6 -1.7 2.1 -1.6 3.9 0.1 1.8 1.9 1.8 3.6 -0.1 3.6 -0.8 0 -1.5 0.4 -1.5 0.9 0 1.1 4.2 0.2 5.1 -1.1 0.9 -1.3 5.9 0.2 5.9 1.7 0 0.7 -0.6 1.6 -1.2 1.8 -0.7 0.3 0.2 0.6 2 0.6 2.1 0.1 3.2 0.6 3.2 1.6 0 0.8 0.5 1.5 1 1.5 0.6 0 1 0.7 1 1.6 0 0.8 0.7 2.2 1.5 3.1 1.4 1.4 1.5 1.3 0.9 -1.1 -0.5 -2 -0.2 -2.6 1 -2.6 0.9 0 1.6 0.7 1.6 1.5 0 0.9 0.9 1.5 2.1 1.5 1.8 0 2 0.4 1.5 2.8 -0.6 2.4 -0.5 2.5 0.7 1 1.7 -2.1 3.7 -2.4 3.7 -0.5 0 0.7 0.9 1.9 2 2.7 1.1 0.8 2 2 2 2.7 0 0.8 1.2 1.3 2.9 1.3 1.6 0 3.2 0.6 3.4 1.3 0.3 0.7 0.6 0.5 0.6 -0.5 0.1 -2.2 3.1 -2.4 3.1 -0.3 0 0.9 0.9 1.5 2.5 1.5 2.9 0 3.5 2.6 0.8 3.3 -1.7 0.4 -1.7 0.5 0 0.6 0.9 0 1.7 0.6 1.7 1.1 0 0.6 0.7 1 1.5 1 0.8 0 1.5 -0.4 1.5 -1 0 -0.5 0.7 -1 1.5 -1 1.8 0 2 3 0.3 3.1 -0.7 0 0.1 0.5 1.7 1.1 1.7 0.6 3.3 1.6 3.7 2.2 0.4 0.6 1.1 0.7 1.5 0.2 0.4 -0.5 0.2 -1.1 -0.5 -1.3 -1.7 -0.6 -1.5 -3.3 0.3 -3.3 0.8 0 1.5 0.6 1.5 1.3 0 0.7 0.9 1.9 2 2.7 1.1 0.8 2 2 2 2.7 0 0.7 0.6 1.3 1.4 1.3 0.7 0 1.7 1 2.1 2.2 0.4 1.4 0.8 1.8 1.2 1.1 0.8 -2.1 3.6 -1.6 3 0.6 -0.3 1.4 0 1.7 1.4 1.4 1.3 -0.4 1.9 0 2 1.3 0 1.1 0.3 1.4 0.6 0.7 0.6 -1.7 2.1 -1.6 3.9 0.1 1.8 1.9 1.8 3.6 -0.1 3.6 -0.8 0 -1.5 0.4 -1.5 0.9 0 1.1 4.2 0.2 5.1 -1.1 0.9 -1.3 5.9 0.2 5.9 1.7 0 0.7 -0.6 1.6 -1.2 1.8 -0.7 0.3 0.2 0.6 2 0.6 2 0.1 3.2 0.6 3.2 1.5 0 0.8 0.7 1.6 1.5 2 0.9 0.3 1.5 0 1.5 -0.9 0 -2.8 2.8 -1.5 3.5 1.5 0.5 2.1 1.2 3 2.7 3 1.7 0 1.9 0.4 1.4 2.8 -0.6 2.4 -0.5 2.5 0.7 1 1.7 -2.1 3.7 -2.4 3.7 -0.5 0 0.7 0.9 1.9 2 2.7 1.1 0.8 2 2 2 2.7 0 0.8 1.2 1.3 2.9 1.3 1.6 0 3.2 0.6 3.4 1.3 0.3 0.7 0.6 0.5 0.6 -0.5 0.1 -2.2 3.1 -2.4 3.1 -0.3 0 0.9 0.9 1.5 2.5 1.5 2.9 0 3.5 2.6 0.8 3.3 -1.7 0.4 -1.7 0.5 0 0.6 0.9 0 1.7 0.6 1.7 1.1 0 0.6 0.7 1 1.5 1 0.8 0 1.5 -0.4 1.5 -1 0 -0.5 1.4 -1 3 -1 4 0 4.2 3 0.3 3.1 l-2.8 0 2.5 1 c1.9 0.8 2.7 0.6 3.6 -0.5 1.4 -1.9 3.4 -2.1 3.4 -0.3 0 0.7 0.9 1.9 2 2.7 1.1 0.8 2 2 2 2.7 0 0.7 1.1 1.3 2.6 1.3 3 0 5.8 2.5 5.1 4.4 -0.4 1 0 1.2 1.4 0.9 1.4 -0.4 1.9 0 2 1.3 0 1.1 0.3 1.4 0.6 0.7 0.6 -1.5 3.3 -1.7 3.3 -0.3 0 0.6 0.7 1 1.5 1 0.8 0 1.5 -0.4 1.5 -1 0 -0.5 0.7 -1 1.5 -1 1.8 0 2 2.7 0.3 3.3 -0.7 0.2 0.2 0.7 2 1.1 3.2 0.8 4.3 3 2 3.9 -0.7 0.3 0.2 0.6 2 0.6 1.7 0.1 3.2 -0.3 3.2 -0.9 0 -0.5 0.7 -1 1.5 -1 0.8 0 1.5 0.7 1.5 1.5 0 0.8 -0.7 1.5 -1.5 1.5 -0.8 0 -1.5 0.4 -1.5 0.9 0 0.5 0.7 1.1 1.5 1.5 0.9 0.3 1.5 0 1.5 -0.9 0 -2.8 2.8 -1.5 3.5 1.6 0.6 2.9 0.9 3 4 2.5 2.7 -0.5 3.3 -0.3 3.8 1.4 0.4 1.7 1 2 3.1 1.4 2 -0.5 2.6 -0.2 2.6 1 0 0.9 -0.7 1.6 -1.5 1.6 -0.8 0 -1.5 0.4 -1.5 0.8 0 0.5 1.4 0.7 3 0.4 1.7 -0.2 3 0 3 0.6 0 0.6 1.4 1.3 3 1.7 1.7 0.4 3 1.3 3 2.1 0 0.8 1 1.4 2.5 1.4 2.9 0 3.5 2.6 0.8 3.3 -1.2 0.3 -0.8 0.5 0.9 0.6 1.4 0 2.9 0.7 3.2 1.4 0.3 0.6 0.3 0 0 -1.5 -0.5 -2.1 -0.2 -2.8 1 -2.8 0.9 0 1.6 0.7 1.6 1.5 0 0.8 0.9 1.5 2 1.5 3.2 0 2.4 3 -0.7 3.1 l-2.8 0 2.5 1 c1.9 0.8 2.7 0.6 3.6 -0.5 1.4 -1.9 3.4 -2.1 3.4 -0.3 0 0.7 0.9 1.9 2 2.7 1.1 0.8 2 2 2 2.7 0 0.7 1.1 1.3 2.6 1.3 3 0 5.8 2.5 5.1 4.4 -0.4 1 0 1.2 1.4 0.9 1.4 -0.4 1.9 0 2 1.3 0 1.1 0.3 1.4 0.6 0.7 0.6 -1.5 3.3 -1.7 3.3 -0.3 0 0.6 0.7 1 1.5 1 0.8 0 1.5 -0.4 1.5 -1 0 -0.5 0.7 -1 1.5 -1 1.8 0 2 2.7 0.3 3.3 -0.7 0.2 0.2 0.7 2 1.1 3.2 0.8 4.3 3 2 3.9 -0.7 0.3 0.2 0.6 2 0.6 1.7 0.1 3.2 -0.3 3.2 -0.9 0 -0.5 0.7 -1 1.5 -1 0.8 0 1.5 0.7 1.5 1.5 0 0.8 -0.7 1.5 -1.5 1.5 -1.9 0 -1.9 1.6 0 2.4 0.9 0.3 1.5 0 1.5 -0.9 0 -2.4 2.7 -1.7 3.5 0.8 0.4 1.3 0.8 1.7 1.2 1 0.8 -2.1 3.6 -1.6 3 0.6 -0.3 1.4 0 1.7 1.4 1.4 1.3 -0.4 1.9 0 2 1.3 0 1.1 0.3 1.4 0.6 0.7 0.6 -1.7 2.1 -1.6 3.9 0.1 1.8 1.9 1.8 3.6 -0.1 3.6 -0.8 0 -1.5 0.4 -1.5 0.8 0 0.5 1.4 0.7 3 0.4 1.8 -0.3 3 0 3 0.7 0 0.6 0.5 1.1 1 1.1 0.6 0 1 -0.7 1 -1.5 0 -0.8 0.7 -1.5 1.5 -1.5 1.8 0 2 2.6 0.3 3.3 -0.7 0.3 0.2 0.6 2 0.6 2.1 0.1 3.2 0.6 3.2 1.6 0 0.8 0.5 1.5 1 1.5 1.7 0 1.1 2.8 -0.7 3.3 -1.2 0.3 -0.8 0.5 0.9 0.6 1.4 0 2.9 0.7 3.2 1.4 0.3 0.6 0.3 0 0 -1.5 -0.5 -2.1 -0.2 -2.8 1 -2.8 0.9 0 1.6 0.7 1.6 1.5 0 0.9 0.9 1.5 2.1 1.5 1.8 0 2 0.4 1.5 2.8 -0.6 2.4 -0.5 2.5 0.7 0.9 1.7 -2 3.7 -2.3 3.7 -0.4 0 0.7 0.9 1.9 2 2.7 1.1 0.8 2 2 2 2.7 0 0.6 0.8 1.6 1.7 2.1 1.5 0.9 1.3 1.7 -2.3 7.8 -347.1 599.6 -599.9 1035.4 -600.5 1035.4 -0.4 0 -1.4 -0.7 -2.3 -1.5z"/>
  <path d="M1671.8 914.2 c-2.8 -0.6 -2.2 -3.2 0.7 -3.2 1.4 0 2.5 0.3 2.5 0.8 0 1.6 -1.6 2.8 -3.2 2.4z"/>
  <path d="M1601 870.5 c0 -0.8 0.7 -1.5 1.5 -1.5 0.8 0 1.5 0.7 1.5 1.5 0 0.8 -0.7 1.5 -1.5 1.5 -0.8 0 -1.5 -0.7 -1.5 -1.5z"/>
  <path d="M1590 864.5 c0 -0.8 0.7 -1.5 1.5 -1.5 0.8 0 1.5 0.7 1.5 1.5 0 0.8 -0.7 1.5 -1.5 1.5 -0.8 0 -1.5 -0.7 -1.5 -1.5z"/>
  <path d="M1546 838.5 c0 -0.8 0.7 -1.5 1.5 -1.5 0.8 0 1.5 0.7 1.5 1.5 0 0.8 -0.7 1.5 -1.5 1.5 -0.8 0 -1.5 -0.7 -1.5 -1.5z"/>
  <path d="M1521 822.5 c0 -0.8 0.7 -1.5 1.5 -1.5 0.8 0 1.5 0.7 1.5 1.5 0 0.8 -0.7 1.5 -1.5 1.5 -0.8 0 -1.5 -0.7 -1.5 -1.5z"/>
  <path d="M1510 816.5 c0 -0.8 0.7 -1.5 1.5 -1.5 0.8 0 1.5 0.7 1.5 1.5 0 0.8 -0.7 1.5 -1.5 1.5 -0.8 0 -1.5 -0.7 -1.5 -1.5z"/>
  <path d="M1478 800.5 c0 -0.8 0.7 -1.5 1.5 -1.5 0.8 0 1.5 0.7 1.5 1.5 0 0.8 -0.7 1.5 -1.5 1.5 -0.8 0 -1.5 -0.7 -1.5 -1.5z"/>
  <path d="M1475 796.5 c0 -0.8 0.7 -1.5 1.5 -1.5 0.8 0 1.5 0.7 1.5 1.5 0 0.8 -0.7 1.5 -1.5 1.5 -0.8 0 -1.5 -0.7 -1.5 -1.5z"/>
  <path d="M1466 790.5 c0 -0.8 0.7 -1.5 1.5 -1.5 0.8 0 1.5 0.7 1.5 1.5 0 0.8 -0.7 1.5 -1.5 1.5 -0.8 0 -1.5 -0.7 -1.5 -1.5z"/>
  <path d="M1447 778.5 c0 -0.8 0.7 -1.5 1.5 -1.5 0.8 0 1.5 0.7 1.5 1.5 0 0.8 -0.7 1.5 -1.5 1.5 -0.8 0 -1.5 -0.7 -1.5 -1.5z"/>
  <path d="M1430 768.5 c0 -0.8 0.7 -1.5 1.5 -1.5 0.8 0 1.5 0.7 1.5 1.5 0 0.8 -0.7 1.5 -1.5 1.5 -0.8 0 -1.5 -0.7 -1.5 -1.5z"/>
  <path d="M1398 752.5 c0 -0.8 0.7 -1.5 1.5 -1.5 0.8 0 1.5 0.7 1.5 1.5 0 0.8 -0.7 1.5 -1.5 1.5 -0.8 0 -1.5 -0.7 -1.5 -1.5z"/>
  <path d="M1395 748.5 c0 -0.8 0.7 -1.5 1.5 -1.5 0.8 0 1.5 0.7 1.5 1.5 0 0.8 -0.7 1.5 -1.5 1.5 -0.8 0 -1.5 -0.7 -1.5 -1.5z"/>
  <path d="M1342 716.5 c0 -0.8 0.7 -1.5 1.5 -1.5 0.8 0 1.5 0.7 1.5 1.5 0 0.8 -0.7 1.5 -1.5 1.5 -0.8 0 -1.5 -0.7 -1.5 -1.5z"/>
  <path d="M1318 704.5 c0 -0.8 0.7 -1.5 1.5 -1.5 0.8 0 1.5 0.7 1.5 1.5 0 0.8 -0.7 1.5 -1.5 1.5 -0.8 0 -1.5 -0.7 -1.5 -1.5z"/>
  <path d="M1249 662.5 c0 -0.8 0.7 -1.5 1.5 -1.5 0.8 0 1.5 0.7 1.5 1.5 0 0.8 -0.7 1.5 -1.5 1.5 -0.8 0 -1.5 -0.7 -1.5 -1.5z"/>
  <path d="M1238 656.5 c0 -0.8 0.7 -1.5 1.5 -1.5 0.8 0 1.5 0.7 1.5 1.5 0 0.8 -0.7 1.5 -1.5 1.5 -0.8 0 -1.5 -0.7 -1.5 -1.5z"/>
 </g>
 <g fill="#00ff5a">
  <path d="M81 2619.7 c0 -0.2 109.2 -189.3 242.6 -420.3 133.4 -230.9 254.5 -440.6 269.1 -465.9 24.8 -42.9 29.6 -50.9 28 -46.2 -0.4 1.2 -0.3 1.6 0.4 1.1 0.6 -0.3 0.9 -1.4 0.6 -2.4 -0.2 -1 -0.1 -2.4 0.4 -3.1 0.7 -1.1 0.9 -1 0.9 0.4 0 1.1 0.8 1.7 2.5 1.7 1.6 0 2.5 0.6 2.5 1.5 0 0.8 -0.9 1.5 -2 1.5 -1.3 0 -2 0.6 -1.9 1.8 0 1 0.3 1.2 0.6 0.5 0.6 -1.5 3.3 -1.7 3.3 -0.3 0 0.6 0.7 1 1.5 1 0.8 0 1.5 -0.4 1.5 -1 0 -0.5 0.7 -1 1.5 -1 1.8 0 2 3 0.3 3.1 -0.7 0 0.1 0.5 1.7 1.1 1.7 0.6 3.8 2.1 4.9 3.2 1.3 1.5 2 1.7 2.3 0.9 0.7 -1.8 3.3 -1.6 3.3 0.2 0 0.8 0.6 1.5 1.4 1.5 0.7 0 1.7 1 2.1 2.3 0.4 1.3 0.8 1.7 1.2 1 0.8 -2.1 3.6 -1.6 3 0.6 -0.3 1.4 0 1.7 1.4 1.4 1.3 -0.4 1.9 0 2 1.3 0 1.1 0.3 1.4 0.6 0.7 0.6 -1.7 2.1 -1.6 3.9 0.1 1.8 1.9 1.8 3.6 -0.1 3.6 -0.8 0 -1.5 0.4 -1.5 0.9 0 1.1 4.2 0.2 5.1 -1.1 0.9 -1.3 5.9 0.2 5.9 1.7 0 0.7 -0.6 1.6 -1.2 1.8 -0.7 0.3 0.2 0.6 2 0.6 2 0.1 3.2 0.6 3.2 1.5 0 1.5 2.1 2.6 5.1 2.6 1 0 1.9 0.7 1.9 1.5 0 0.9 0.9 1.5 2.1 1.5 1.8 0 2 0.4 1.5 2.8 -0.6 2.4 -0.5 2.5 0.7 0.9 1.7 -2 3.7 -2.3 3.7 -0.4 0 0.7 0.9 1.9 2 2.7 1.1 0.8 2 2 2 2.7 0 0.8 1.2 1.3 2.9 1.3 1.6 0 3.2 0.6 3.4 1.3 0.3 0.7 0.6 0.5 0.6 -0.5 0.1 -2.2 3.1 -2.4 3.1 -0.3 0 0.9 0.9 1.5 2.5 1.5 2.9 0 3.5 2.6 0.8 3.3 -1.7 0.4 -1.7 0.5 0 0.6 0.9 0 1.7 0.6 1.7 1.1 0 0.6 0.7 1 1.5 1 0.8 0 1.5 -0.4 1.5 -1 0 -0.5 0.7 -1 1.5 -1 1.8 0 2 3 0.3 3.1 -0.7 0 -0.2 0.5 1.2 1 1.9 0.8 2.7 0.6 3.6 -0.5 2.1 -2.9 3.5 -1.9 2.8 1.9 -0.4 2.3 -0.2 3.5 0.5 3.5 0.6 0 1.1 -0.4 1.1 -1 0 -0.5 0.7 -1 1.5 -1 0.8 0 1.5 0.7 1.5 1.5 0 0.8 0.6 1.5 1.4 1.5 0.7 0 1.7 1 2.1 2.2 0.4 1.4 0.8 1.8 1.2 1.1 0.8 -2.1 3.6 -1.6 3 0.6 -0.3 1.4 0 1.7 1.4 1.4 1.3 -0.4 1.9 0 2 1.3 0 1.1 0.3 1.4 0.6 0.7 0.6 -1.5 3.3 -1.7 3.3 -0.3 0 0.6 0.7 1 1.5 1 0.8 0 1.5 -0.4 1.5 -1 0 -0.5 0.7 -1 1.5 -1 1.8 0 2 2.7 0.3 3.3 -0.7 0.2 0.2 0.7 2 1.1 3.2 0.8 4.3 3 2 3.9 -0.7 0.3 0.2 0.6 2 0.6 1.7 0.1 3.2 -0.3 3.2 -0.9 0 -0.5 0.7 -1 1.5 -1 0.8 0 1.5 0.7 1.5 1.5 0 0.8 -0.7 1.5 -1.5 1.5 -1.9 0 -1.9 1.6 0 2.4 0.9 0.3 1.5 0 1.5 -0.9 0 -2.8 2.8 -1.5 3.5 1.5 0.5 2.1 1.2 3 2.7 3 1.7 0 1.9 0.4 1.4 2.8 -0.5 2.3 -0.4 2.5 0.6 1.1 1.7 -2 8.8 -2.3 8.8 -0.3 0 0.8 -0.7 1.4 -1.5 1.4 -0.8 0 -1.5 0.5 -1.5 1 0 0.6 0.5 1 1 1 0.6 0 1 0.7 1 1.5 0 1 1 1.5 2.9 1.5 1.6 0 3.2 0.6 3.4 1.3 0.3 0.7 0.6 0.5 0.6 -0.5 0.1 -2.2 3.1 -2.4 3.1 -0.3 0 0.9 0.9 1.5 2.5 1.5 2.9 0 3.5 2.6 0.8 3.3 -1.2 0.3 -0.8 0.5 0.9 0.6 1.4 0 2.9 0.7 3.1 1.4 0.4 0.9 0.6 0.9 0.6 0 0.1 -1.9 6.1 -1.7 6.1 0.2 0 1 -1 1.5 -2.7 1.6 l-2.8 0 2.5 1 c1.9 0.8 2.7 0.6 3.6 -0.5 1.4 -1.9 3.4 -2.1 3.4 -0.3 0 0.7 0.9 1.9 2 2.7 1.1 0.8 2 2 2 2.7 0 0.7 1.1 1.3 2.6 1.3 3 0 5.8 2.5 5.1 4.4 -0.4 1 0 1.2 1.4 0.9 1.4 -0.4 1.9 0 2 1.3 0 1.1 0.3 1.4 0.6 0.7 0.6 -1.5 3.3 -1.7 3.3 -0.3 0 0.6 0.7 1 1.5 1 0.8 0 1.5 -0.4 1.5 -1 0 -0.5 0.7 -1 1.5 -1 1.8 0 2 2.7 0.3 3.3 -0.7 0.2 0.2 0.7 2 1.1 3.2 0.8 4.3 3 2 3.9 -0.7 0.3 0.2 0.6 2 0.6 1.7 0.1 3.2 -0.3 3.2 -0.9 0 -0.5 0.7 -1 1.5 -1 0.8 0 1.5 0.7 1.5 1.5 0 0.8 -0.7 1.5 -1.5 1.5 -0.8 0 -1.5 0.4 -1.5 0.9 0 0.5 0.7 1.1 1.5 1.5 0.9 0.3 1.5 0 1.5 -0.9 0 -2.4 2.7 -1.7 3.5 0.8 0.4 1.3 0.8 1.7 1.2 1 0.8 -2.1 3.6 -1.6 3 0.6 -0.3 1.4 0 1.7 1.4 1.4 1.4 -0.4 1.9 0 1.9 1.3 0 1.4 0.2 1.6 0.9 0.6 0.7 -1.2 1.2 -1.2 3 -0.1 2.4 1.6 2.8 3.9 0.6 3.9 -0.8 0 -1.5 0.4 -1.5 0.8 0 0.5 1.4 0.7 3 0.4 1.8 -0.3 3 0 3 0.7 0 0.6 0.5 1.1 1 1.1 0.6 0 1 -0.7 1 -1.5 0 -0.8 0.7 -1.5 1.5 -1.5 1.8 0 2 2.6 0.3 3.3 -0.8 0.3 -0.6 0.6 0.5 0.6 0.9 0.1 1.7 0.8 1.7 1.6 0 0.9 0.9 1.5 2.5 1.5 2.9 0 3.5 2.6 0.8 3.3 -1.2 0.3 -0.8 0.5 0.9 0.6 1.4 0 2.9 0.7 3.1 1.4 0.4 0.9 0.6 0.9 0.6 0 0.1 -0.8 1.4 -1.3 3.2 -1.3 2.9 0 3.1 0.2 2.5 2.8 -0.6 2.4 -0.5 2.5 0.7 1 1.7 -2.1 3.7 -2.4 3.7 -0.5 0 0.7 0.9 1.9 2 2.7 1.1 0.8 2 2 2 2.7 0 0.7 1.1 1.3 2.6 1.3 3 0 5.8 2.5 5.1 4.4 -0.4 1 0 1.2 1.4 0.9 1.4 -0.4 1.9 0 2 1.3 0 1.1 0.3 1.4 0.6 0.7 0.6 -1.5 3.3 -1.7 3.3 -0.3 0 0.6 0.7 1 1.5 1 0.8 0 1.5 -0.4 1.5 -1 0 -0.5 0.7 -1 1.5 -1 1.8 0 2 2.7 0.3 3.3 -0.7 0.2 0.2 0.7 2 1.1 3.2 0.8 4.3 3 2 3.9 -0.7 0.3 0.2 0.6 2 0.6 1.7 0.1 3.2 -0.3 3.2 -0.9 0 -0.5 0.7 -1 1.5 -1 0.8 0 1.5 0.7 1.5 1.5 0 0.8 -0.7 1.5 -1.5 1.5 -1.9 0 -1.9 1.6 0 2.4 0.9 0.3 1.5 0 1.5 -0.9 0 -2.4 2.7 -1.7 3.5 0.8 0.4 1.3 0.8 1.7 1.2 1 0.8 -2.1 3.6 -1.6 3 0.6 -0.3 1.4 0 1.7 1.4 1.4 1.4 -0.4 1.9 0 1.9 1.3 0 1.4 0.2 1.6 0.9 0.6 0.7 -1.2 1.2 -1.2 3 -0.1 2.4 1.6 2.8 3.9 0.6 3.9 -0.8 0 -1.5 0.4 -1.5 0.8 0 0.5 1.4 0.7 3 0.4 1.8 -0.3 3 0 3 0.7 0 0.6 0.5 1.1 1 1.1 0.6 0 1 -0.7 1 -1.5 0 -0.8 0.7 -1.5 1.5 -1.5 1.8 0 2 2.6 0.3 3.3 -0.7 0.3 0.2 0.6 2 0.6 2.1 0.1 3.2 0.6 3.2 1.6 0 0.8 0.5 1.5 1 1.5 1.7 0 1.1 2.8 -0.7 3.3 -1.2 0.3 -0.8 0.5 0.9 0.6 1.4 0 2.9 0.7 3.2 1.4 0.3 0.6 0.3 0 0 -1.5 -0.5 -2.1 -0.2 -2.8 1 -2.8 0.9 0 1.6 0.7 1.6 1.5 0 0.9 0.9 1.5 2.1 1.5 1.8 0 2 0.4 1.5 2.7 -0.6 2.5 -0.5 2.6 0.7 1.1 1.7 -2.1 3.7 -2.4 3.7 -0.5 0 0.7 0.9 1.9 2 2.7 1.1 0.8 2 2 2 2.7 0 0.8 1.2 1.3 2.9 1.3 1.6 0 3.2 0.6 3.4 1.3 0.3 0.7 0.6 0.5 0.6 -0.5 0.1 -2.2 3.1 -2.4 3.1 -0.3 0 0.9 0.9 1.5 2.5 1.5 1.6 0 2.5 0.6 2.5 1.5 0 0.8 -0.9 1.5 -2 1.5 -1.3 0 -2 0.6 -1.9 1.8 0 1 0.3 1.2 0.6 0.4 0.6 -1.4 3.3 -1.6 3.3 -0.2 0 0.6 0.7 1 1.5 1 0.8 0 1.5 -0.4 1.5 -1 0 -0.5 0.7 -1 1.5 -1 1.8 0 2 3 0.3 3.1 -0.7 0 0.1 0.5 1.7 1.1 1.7 0.6 3.8 2.1 4.9 3.2 1.3 1.5 2 1.7 2.3 0.9 0.7 -1.8 3.3 -1.6 3.3 0.2 0 0.8 0.6 1.5 1.4 1.5 0.7 0 1.7 1 2.1 2.3 0.4 1.3 0.8 1.7 1.2 1 0.8 -2.1 3.6 -1.6 3 0.6 -0.3 1.4 0 1.7 1.4 1.4 1.3 -0.4 1.9 0 2 1.3 0 1.1 0.3 1.4 0.6 0.7 0.6 -1.7 2.1 -1.6 3.9 0.1 1.8 1.9 1.8 3.6 -0.1 3.6 -0.8 0 -1.5 0.4 -1.5 0.9 0 1.1 4.2 0.2 5.1 -1.1 0.9 -1.3 5.9 0.2 5.9 1.7 0 0.7 -0.6 1.6 -1.2 1.8 -0.7 0.3 0.2 0.6 2 0.6 2 0.1 3.2 0.6 3.2 1.5 0 1.5 2.1 2.6 5.1 2.6 1 0 1.9 0.7 1.9 1.5 0 0.9 0.9 1.5 2.1 1.5 1.8 0 2 0.4 1.5 2.8 -0.6 2.4 -0.5 2.5 0.7 1 1.7 -2.1 3.7 -2.4 3.7 -0.5 0 0.7 0.9 1.9 2 2.7 1.1 0.8 2 2 2 2.7 0 0.8 1.2 1.3 2.9 1.3 1.6 0 3.2 0.6 3.4 1.3 0.3 0.7 0.6 0.5 0.6 -0.5 0.1 -2.2 3.1 -2.4 3.1 -0.3 0 0.9 0.9 1.5 2.5 1.5 2.9 0 3.5 2.6 0.8 3.3 -1.7 0.4 -1.7 0.5 0 0.6 0.9 0 1.7 0.6 1.7 1.1 0 0.6 0.7 1 1.5 1 0.8 0 1.5 -0.4 1.5 -1 0 -0.5 0.7 -1 1.5 -1 1.8 0 2 3 0.3 3.1 -0.7 0 -0.2 0.5 1.2 1 1.9 0.8 2.7 0.6 3.6 -0.5 1.1 -1.5 5.4 -2.3 5.4 -1 0 0.3 -0.7 1.8 -1.6 3.4 -1.2 1.9 -2.3 2.6 -3.5 2.3 -2.1 -0.6 -2.7 1.3 -0.6 2 0.9 0.3 0.8 1.1 -0.4 3.3 -18 31.8 -328.6 567.1 -332.1 572.4 -30.4 45.5 -78.6 76.4 -134.4 86 -15.4 2.6 -45.8 3 -278.6 3 -133.6 0 -242.8 -0.1 -242.8 -0.3z m663 -861.3 c0 -0.2 -1.1 -0.4 -2.5 -0.4 -1.4 0 -2.5 0.4 -2.5 0.9 0 0.4 1.1 0.6 2.5 0.3 1.4 -0.2 2.5 -0.6 2.5 -0.8z"/>
  <path d="M1046 1936.5 c0 -0.8 0.7 -1.5 1.5 -1.5 0.8 0 1.5 0.7 1.5 1.5 0 0.8 -0.7 1.5 -1.5 1.5 -0.8 0 -1.5 -0.7 -1.5 -1.5z"/>
  <path d="M1043 1932.5 c0 -0.8 0.7 -1.5 1.5 -1.5 0.8 0 1.5 0.7 1.5 1.5 0 0.8 -0.7 1.5 -1.5 1.5 -0.8 0 -1.5 -0.7 -1.5 -1.5z"/>
  <path d="M990 1900.5 c0 -0.8 0.7 -1.5 1.5 -1.5 0.8 0 1.5 0.7 1.5 1.5 0 0.8 -0.7 1.5 -1.5 1.5 -0.8 0 -1.5 -0.7 -1.5 -1.5z"/>
  <path d="M966 1888.5 c0 -0.8 0.7 -1.5 1.5 -1.5 0.8 0 1.5 0.7 1.5 1.5 0 0.8 -0.7 1.5 -1.5 1.5 -0.8 0 -1.5 -0.7 -1.5 -1.5z"/>
  <path d="M897 1846.5 c0 -0.8 0.7 -1.5 1.5 -1.5 0.8 0 1.5 0.7 1.5 1.5 0 0.8 -0.7 1.5 -1.5 1.5 -0.8 0 -1.5 -0.7 -1.5 -1.5z"/>
  <path d="M886 1840.5 c0 -0.8 0.7 -1.5 1.5 -1.5 0.8 0 1.5 0.7 1.5 1.5 0 0.8 -0.7 1.5 -1.5 1.5 -0.8 0 -1.5 -0.7 -1.5 -1.5z"/>
  <path d="M817 1798.5 c0 -0.8 0.7 -1.5 1.5 -1.5 0.8 0 1.5 0.7 1.5 1.5 0 0.8 -0.7 1.5 -1.5 1.5 -0.8 0 -1.5 -0.7 -1.5 -1.5z"/>
  <path d="M806 1792.5 c0 -0.8 0.7 -1.5 1.5 -1.5 0.8 0 1.5 0.7 1.5 1.5 0 0.8 -0.7 1.5 -1.5 1.5 -0.8 0 -1.5 -0.7 -1.5 -1.5z"/>
  <path d="M774 1776.5 c0 -0.8 0.7 -1.5 1.5 -1.5 0.8 0 1.5 0.7 1.5 1.5 0 0.8 -0.7 1.5 -1.5 1.5 -0.8 0 -1.5 -0.7 -1.5 -1.5z"/>
  <path d="M762 1766.5 c0 -0.8 0.7 -1.5 1.5 -1.5 0.8 0 1.5 0.7 1.5 1.5 0 0.8 -0.7 1.5 -1.5 1.5 -0.8 0 -1.5 -0.7 -1.5 -1.5z"/>
  <path d="M737 1750.5 c0 -0.8 0.7 -1.5 1.5 -1.5 0.8 0 1.5 0.7 1.5 1.5 0 0.8 -0.7 1.5 -1.5 1.5 -0.8 0 -1.5 -0.7 -1.5 -1.5z"/>
  <path d="M726 1744.5 c0 -0.8 0.7 -1.5 1.5 -1.5 0.8 0 1.5 0.7 1.5 1.5 0 0.8 -0.7 1.5 -1.5 1.5 -0.8 0 -1.5 -0.7 -1.5 -1.5z"/>
  <path d="M694 1728.5 c0 -0.8 0.7 -1.5 1.5 -1.5 0.8 0 1.5 0.7 1.5 1.5 0 0.8 -0.7 1.5 -1.5 1.5 -0.8 0 -1.5 -0.7 -1.5 -1.5z"/>
  <path d="M691 1724.5 c0 -0.8 0.7 -1.5 1.5 -1.5 0.8 0 1.5 0.7 1.5 1.5 0 0.8 -0.7 1.5 -1.5 1.5 -0.8 0 -1.5 -0.7 -1.5 -1.5z"/>
  <path d="M646 1696.5 c0 -0.8 0.7 -1.5 1.5 -1.5 0.8 0 1.5 0.7 1.5 1.5 0 0.8 -0.7 1.5 -1.5 1.5 -0.8 0 -1.5 -0.7 -1.5 -1.5z"/>
  <path d="M638 1692.5 c0 -0.8 0.7 -1.5 1.5 -1.5 0.8 0 1.5 0.7 1.5 1.5 0 0.8 -0.7 1.5 -1.5 1.5 -0.8 0 -1.5 -0.7 -1.5 -1.5z"/>
 </g>
 <g fill="#ff002b">
  <path d="M1330 2487 c-29.7 -2.5 -57 -18.4 -73.7 -43 -3.2 -4.7 -152.6 -264.3 -154.4 -268.3 -1 -2.1 14.8 -29.8 149.1 -262.8 82.6 -143.2 150.5 -260.8 150.9 -261.2 0.6 -0.6 478.9 830.4 480.9 835.5 0.4 1 -540.8 0.8 -552.8 -0.2z"/>
 </g>
 <g fill="#ff000b">
  <path d="M322.5 820.2 c-176.5 -307.2 -321.1 -558.9 -321.3 -559.4 -0.5 -1.1 538.4 -1 552.5 0.2 20 1.6 37.5 8.2 53.1 20 9.6 7.2 15.7 13.8 22.8 24.5 6.7 10.3 315.7 548.6 315.7 550.1 0 1.2 -298.9 520.2 -300.7 522.1 -0.8 0.8 -85.2 -145.2 -322.1 -557.5z"/>
 </g>
</svg>